<svg width="80" height="24" viewBox="0 0 80 24" fill="none" xmlns="http://www.w3.org/2000/svg">
<g id="Group 48097056">
<path id="Vector" d="M79.6446 13.5879V17.0107H77.5909C76.1273 17.0107 74.9864 16.6566 74.168 15.9485C73.3497 15.2246 72.9405 14.0521 72.9405 12.4312V7.19071H71.3353V3.83869H72.9405V0.628296H76.9771V3.83869H79.621V7.19071H76.9771V12.4784C76.9771 12.8718 77.0715 13.1551 77.2604 13.3282C77.4492 13.5013 77.764 13.5879 78.2046 13.5879H79.6446Z" fill="#4F6AFC"/>
<path id="Vector_2" d="M70.1114 3.83862V17.0107H66.0748V15.2166C65.6656 15.7989 65.107 16.271 64.3988 16.633C63.7064 16.9792 62.9352 17.1523 62.0854 17.1523C61.0782 17.1523 60.1891 16.932 59.418 16.4913C58.6468 16.035 58.0488 15.3819 57.6239 14.5321C57.199 13.6822 56.9866 12.6829 56.9866 11.5341V3.83862H60.9996V10.9912C60.9996 11.8725 61.2277 12.557 61.6841 13.0449C62.1405 13.5327 62.7543 13.7767 63.5254 13.7767C64.3122 13.7767 64.9339 13.5327 65.3902 13.0449C65.8466 12.557 66.0748 11.8725 66.0748 10.9912V3.83862H70.1114Z" fill="#4F6AFC"/>
<path id="Vector_3" d="M43.1152 3.83862L34.8532 23.2662H30.5097L33.5313 16.5622L28.1727 3.83862H32.6814L35.7266 12.0771L38.7481 3.83862H43.1152Z" fill="#4F6AFC"/>
<path id="Vector_4" d="M13.2196 10.401C13.2196 9.04764 13.4714 7.85948 13.975 6.83657C14.4943 5.81365 15.1946 5.02679 16.0759 4.47598C16.9572 3.92518 17.9408 3.64978 19.0266 3.64978C19.9551 3.64978 20.7656 3.83863 21.458 4.21632C22.1662 4.59401 22.7091 5.08974 23.0868 5.70349V3.83863H27.1234V17.0107H23.0868V15.1458C22.6934 15.7596 22.1426 16.2553 21.4344 16.633C20.742 17.0107 19.9315 17.1995 19.003 17.1995C17.9329 17.1995 16.9572 16.9241 16.0759 16.3733C15.1946 15.8068 14.4943 15.012 13.975 13.9891C13.4714 12.9505 13.2196 11.7544 13.2196 10.401ZM23.0868 10.4246C23.0868 9.41747 22.8036 8.62274 22.237 8.04046C21.6862 7.45819 21.0095 7.16705 20.2069 7.16705C19.4043 7.16705 18.7198 7.45819 18.1532 8.04046C17.6024 8.607 17.327 9.39386 17.327 10.401C17.327 11.4082 17.6024 12.2108 18.1532 12.8088C18.7198 13.3911 19.4043 13.6823 20.2069 13.6823C21.0095 13.6823 21.6862 13.3911 22.237 12.8088C22.8036 12.2266 23.0868 11.4318 23.0868 10.4246Z" fill="#4F6AFC"/>
<path id="Vector_5" d="M12.6291 5.77437C12.6291 6.73434 12.4088 7.61562 11.9681 8.41822C11.5275 9.20508 10.8508 9.84244 9.93805 10.3303C9.02529 10.8181 7.89221 11.0621 6.53881 11.0621H4.03659V17.0107H0V0.439453H6.53881C7.86074 0.439453 8.97808 0.667642 9.89084 1.12402C10.8036 1.5804 11.4882 2.20989 11.9445 3.01249C12.4009 3.81508 12.6291 4.73571 12.6291 5.77437ZM6.23194 7.85168C7.00306 7.85168 7.57747 7.6707 7.95516 7.30874C8.33285 6.94679 8.5217 6.43533 8.5217 5.77437C8.5217 5.1134 8.33285 4.60194 7.95516 4.23999C7.57747 3.87803 7.00306 3.69706 6.23194 3.69706H4.03659V7.85168H6.23194Z" fill="#4F6AFC"/>
<ellipse id="Ellipse 1172" cx="8.01795" cy="1.99337" rx="8.01795" ry="1.99337" transform="matrix(-0.856142 0.516741 0.516741 0.856142 54.2915 2.39441)" fill="#4F6AFC"/>
<ellipse id="Ellipse 1174" cx="8.01795" cy="1.99337" rx="8.01795" ry="1.99337" transform="matrix(-0.856142 0.516741 0.516741 0.856142 54.2346 6.9928)" fill="#4F6AFC"/>
</g>
</svg>
